<svg xmlns="http://www.w3.org/2000/svg" viewBox="0 0 32 32" fill="none">
  <!-- Crescent moon "C" shape — outer arc -->
  <path d="M24 4C14.059 4 6 12.059 6 22C6 24.077 6.404 26.058 7.129 27.875C4.478 25.087 2.8 21.334 2.8 17.2C2.8 8.858 9.658 2 18 2C20.764 2 23.365 2.71 25.6 3.926C25.067 3.975 24.533 4 24 4Z" fill="currentColor" opacity="0.6"/>
  <!-- Inner crescent -->
  <path d="M28 8C19.163 8 12 15.163 12 24C12 25.846 12.336 27.612 12.946 29.25C10.676 26.876 9.2 23.588 9.2 20C9.2 12.82 15.02 7 22.2 7C24.533 7 26.733 7.588 28.667 8.617C28.222 8.784 28 8.784 28 8Z" fill="currentColor"/>
</svg>
